# xmcd
#
# Track frame offsets: 
#        150
#        19406
#        34615
#        49736
#        66809
#        82780
#        100711
#        125209
#        142457
#        165391
#        184960
#
# Disc length: 2751 seconds
#
# Revision: 0
# Processed by: cddbd v1.5.2PL0 Copyright (c) Steve Scherf et al.
# Submitted via: ExactAudioCopy v0.99pb5
#
DISCID=970abd0b
DTITLE=Bob Dylan and The Band - Before The Flood (Disk 1)
DYEAR=1974
DGENRE=Rock
TTITLE0=Most Likely You Go Your Way (And I'll Go Mine)
TTITLE1=Lay Lady Lay
TTITLE2=Rainy Day Women #12 and 35
TTITLE3=Knockin' On Heaven's Door
TTITLE4=It Ain't Me Babe
TTITLE5=Ballad Of A Thin Man
TTITLE6=Up On Cripple Creek
TTITLE7=I Shall Be Released
TTITLE8=Endless Highway
TTITLE9=The Night They Drove Old Dixie Down
TTITLE10=Stage Fright
EXTD=
EXTT0=
EXTT1=
EXTT2=
EXTT3=
EXTT4=
EXTT5=
EXTT6=
EXTT7=
EXTT8=
EXTT9=
EXTT10=
PLAYORDER=
